HIERARCHY
ROOT Hips
{
    OFFSET   0.000000   0.000000   0.000000
    CHANNELS 6 Xposition Yposition Zposition Zrotation Xrotation Yrotation
    JOINT Chest
    {
        OFFSET   0.000000   8.007230   0.000000
        CHANNELS 3 Zrotation Xrotation Yrotation
        JOINT Chest2
        {
            OFFSET   0.000000  22.077100   0.000000
            CHANNELS 3 Zrotation Xrotation Yrotation
            JOINT Neck
            {
                OFFSET   0.000000  23.255100   0.000000
                CHANNELS 3 Zrotation Xrotation Yrotation
                JOINT Head
                {
                    OFFSET   0.000000  14.370100   1.956600
                    CHANNELS 3 Zrotation Xrotation Yrotation
                    End Site
                    {
                        OFFSET   0.000000  19.566000   0.000000
                    }
                }
            }
            JOINT LeftCollar
            {
                OFFSET   3.911900  19.017000  -0.467063
                CHANNELS 3 Zrotation Xrotation Yrotation
                JOINT LeftShoulder
                {
                    OFFSET  10.383700   0.000000   0.000000
                    CHANNELS 3 Zrotation Xrotation Yrotation
                    JOINT LeftElbow
                    {
                        OFFSET  26.662100   0.001193   0.000980
                        CHANNELS 3 Zrotation Xrotation Yrotation
                        JOINT LeftWrist
                        {
                            OFFSET  28.869000  -0.000059  -0.000082
                            CHANNELS 3 Zrotation Xrotation Yrotation
                            JOINT LeftFinger0
                            {
                                OFFSET   2.044650  -2.323450   3.252850
                                CHANNELS 3 Zrotation Xrotation Yrotation
                                JOINT LeftFinger01
                                {
                                    OFFSET   3.088130   0.000000   0.000000
                                    CHANNELS 3 Zrotation Xrotation Yrotation
                                    JOINT LeftFinger02
                                    {
                                        OFFSET   2.639460   0.000000   0.000000
                                        CHANNELS 3 Zrotation Xrotation Yrotation
                                        End Site
                                        {
                                            OFFSET   2.582190   0.000000   0.000000
                                        }
                                    }
                                }
                            }
                            JOINT LeftFinger1
                            {
                                OFFSET   8.364480   0.000000   3.252850
                                CHANNELS 3 Zrotation Xrotation Yrotation
                                JOINT LeftFinger11
                                {
                                    OFFSET   4.646930   0.000000   0.000000
                                    CHANNELS 3 Zrotation Xrotation Yrotation
                                    JOINT LeftFinger12
                                    {
                                        OFFSET   2.323470   0.000000   0.000000
                                        CHANNELS 3 Zrotation Xrotation Yrotation
                                        End Site
                                        {
                                            OFFSET   2.273050   0.000000   0.000000
                                        }
                                    }
                                }
                            }
                            JOINT LeftFinger2
                            {
                                OFFSET   8.364490   0.000016   1.078090
                                CHANNELS 3 Zrotation Xrotation Yrotation
                                JOINT LeftFinger21
                                {
                                    OFFSET   5.111610   0.000000   0.000000
                                    CHANNELS 3 Zrotation Xrotation Yrotation
                                    JOINT LeftFinger22
                                    {
                                        OFFSET   2.788150   0.000016   0.000000
                                        CHANNELS 3 Zrotation Xrotation Yrotation
                                        End Site
                                        {
                                            OFFSET   2.727660   0.000000   0.000000
                                        }
                                    }
                                }
                            }
                            JOINT LeftFinger3
                            {
                                OFFSET   7.899780   0.000015  -1.078090
                                CHANNELS 3 Zrotation Xrotation Yrotation
                                JOINT LeftFinger31
                                {
                                    OFFSET   4.646930   0.000000   0.000000
                                    CHANNELS 3 Zrotation Xrotation Yrotation
                                    JOINT LeftFinger32
                                    {
                                        OFFSET   2.323470   0.000000   0.000000
                                        CHANNELS 3 Zrotation Xrotation Yrotation
                                        End Site
                                        {
                                            OFFSET   2.273050   0.000000   0.000000
                                        }
                                    }
                                }
                            }
                            JOINT LeftFinger4
                            {
                                OFFSET   7.435090   0.000000  -3.252850
                                CHANNELS 3 Zrotation Xrotation Yrotation
                                JOINT LeftFinger41
                                {
                                    OFFSET   3.717550   0.000000   0.000000
                                    CHANNELS 3 Zrotation Xrotation Yrotation
                                    JOINT LeftFinger42
                                    {
                                        OFFSET   1.858770   0.000000   0.000000
                                        CHANNELS 3 Zrotation Xrotation Yrotation
                                        End Site
                                        {
                                            OFFSET   1.818440   0.000000   0.000000
                                        }
                                    }
                                }
                            }
                        }
                    }
                }
            }
            JOINT RightCollar
            {
                OFFSET  -3.911910  19.017000  -0.467062
                CHANNELS 3 Zrotation Xrotation Yrotation
                JOINT RightShoulder
                {
                    OFFSET -10.383700   0.000014   0.000000
                    CHANNELS 3 Zrotation Xrotation Yrotation
                    JOINT RightElbow
                    {
                        OFFSET -26.662100   0.001225   0.001091
                        CHANNELS 3 Zrotation Xrotation Yrotation
                        JOINT RightWrist
                        {
                            OFFSET -28.869000  -0.000020  -0.000085
                            CHANNELS 3 Zrotation Xrotation Yrotation
                            JOINT RightFinger0
                            {
                                OFFSET  -2.044650  -2.323490   3.252850
                                CHANNELS 3 Zrotation Xrotation Yrotation
                                JOINT RightFinger01
                                {
                                    OFFSET  -3.088130   0.000000   0.000000
                                    CHANNELS 3 Zrotation Xrotation Yrotation
                                    JOINT RightFinger02
                                    {
                                        OFFSET  -2.639460   0.000000   0.000000
                                        CHANNELS 3 Zrotation Xrotation Yrotation
                                        End Site
                                        {
                                            OFFSET  -2.582190   0.000000   0.000000
                                        }
                                    }
                                }
                            }
                            JOINT RightFinger1
                            {
                                OFFSET  -8.364480   0.000000   3.252850
                                CHANNELS 3 Zrotation Xrotation Yrotation
                                JOINT RightFinger11
                                {
                                    OFFSET  -4.646930   0.000000   0.000000
                                    CHANNELS 3 Zrotation Xrotation Yrotation
                                    JOINT RightFinger12
                                    {
                                        OFFSET  -2.323470   0.000000   0.000000
                                        CHANNELS 3 Zrotation Xrotation Yrotation
                                        End Site
                                        {
                                            OFFSET  -2.273050   0.000000   0.000000
                                        }
                                    }
                                }
                            }
                            JOINT RightFinger2
                            {
                                OFFSET  -8.364480   0.000000   1.078090
                                CHANNELS 3 Zrotation Xrotation Yrotation
                                JOINT RightFinger21
                                {
                                    OFFSET  -5.111620   0.000000   0.000000
                                    CHANNELS 3 Zrotation Xrotation Yrotation
                                    JOINT RightFinger22
                                    {
                                        OFFSET  -2.788160   0.000000   0.000000
                                        CHANNELS 3 Zrotation Xrotation Yrotation
                                        End Site
                                        {
                                            OFFSET  -2.727660   0.000000   0.000000
                                        }
                                    }
                                }
                            }
                            JOINT RightFinger3
                            {
                                OFFSET  -7.899780   0.000000  -1.078090
                                CHANNELS 3 Zrotation Xrotation Yrotation
                                JOINT RightFinger31
                                {
                                    OFFSET  -4.646930   0.000000   0.000000
                                    CHANNELS 3 Zrotation Xrotation Yrotation
                                    JOINT RightFinger32
                                    {
                                        OFFSET  -2.323470   0.000000   0.000000
                                        CHANNELS 3 Zrotation Xrotation Yrotation
                                        End Site
                                        {
                                            OFFSET  -2.273050   0.000000   0.000000
                                        }
                                    }
                                }
                            }
                            JOINT RightFinger4
                            {
                                OFFSET  -7.435090   0.000000  -3.252850
                                CHANNELS 3 Zrotation Xrotation Yrotation
                                JOINT RightFinger41
                                {
                                    OFFSET  -3.717550   0.000000   0.000000
                                    CHANNELS 3 Zrotation Xrotation Yrotation
                                    JOINT RightFinger42
                                    {
                                        OFFSET  -1.858760   0.000000   0.000000
                                        CHANNELS 3 Zrotation Xrotation Yrotation
                                        End Site
                                        {
                                            OFFSET  -1.818440   0.000000   0.000000
                                        }
                                    }
                                }
                            }
                        }
                    }
                }
            }
        }
    }
    JOINT LeftHip
    {
        OFFSET   9.783030   0.000000   0.000000
        CHANNELS 3 Zrotation Xrotation Yrotation
        JOINT LeftKnee
        {
            OFFSET   0.000063 -41.789100   0.000608
            CHANNELS 3 Zrotation Xrotation Yrotation
            JOINT LeftAnkle
            {
                OFFSET   0.000048 -41.133200  -0.000184
                CHANNELS 3 Zrotation Xrotation Yrotation
                JOINT LeftToe
                {
                    OFFSET   0.000000  -6.358960  14.674500
                    CHANNELS 3 Zrotation Xrotation Yrotation
                    End Site
                    {
                        OFFSET   0.000000   0.000000   3.913200
                    }
                }
            }
        }
    }
    JOINT RightHip
    {
        OFFSET  -9.783030   0.000000   0.000000
        CHANNELS 3 Zrotation Xrotation Yrotation
        JOINT RightKnee
        {
            OFFSET   0.000071 -41.789100   0.001239
            CHANNELS 3 Zrotation Xrotation Yrotation
            JOINT RightAnkle
            {
                OFFSET   0.000037 -41.133200  -0.000166
                CHANNELS 3 Zrotation Xrotation Yrotation
                JOINT RightToe
                {
                    OFFSET   0.000000  -6.358960  14.674500
                    CHANNELS 3 Zrotation Xrotation Yrotation
                    End Site
                    {
                        OFFSET   0.000000   0.000000   3.913200
                    }
                }
            }
        }
    }
}
MOTION
Frames: 4
Frame Time:   0.016667
  1.137570  89.463600  -2.215060  -2.240320  -5.814930   3.063960   2.036720   3.370760  -1.273620   4.158800   6.693150  -2.673540  -0.168963   1.074730   0.000426  -0.276736   2.179290  13.860000  -9.569460   2.100480   0.130552 -57.588900  15.548100 -53.284100   4.475170  -2.081470 -106.044000  -1.437310  23.312000  -6.658870  35.696700  21.286800 -64.254400 -16.139900   0.005043   0.002928  -3.069960  -0.000036   0.003394  -8.231590   0.341538  -2.361350  -6.740600   0.002053   0.006409  -4.718430   0.001963   0.004307  -8.223510   0.303514  -2.091120  -8.229150   0.004662   0.001567  -5.480610   0.003288   0.001682 -11.185800   0.410731  -2.072810 -11.193000   0.004640   0.004791  -7.454520   0.004720   0.004531 -14.607900   0.533119  -2.045030 -21.926200   0.005640   0.000649 -14.602800  -0.001731   0.009610   7.197370  -0.888337  13.466800  51.344400   1.845240  39.665400 -17.870200 -18.764800 100.818000   2.602390   9.595250  27.703900 -53.625600  43.750800  87.551900  11.350300   0.000584  -0.000965   0.675147   0.001950  -0.000083  19.861300   2.413060   6.652700  16.365100   0.004727  -0.012522  11.455600   0.001297  -0.001648  17.950100   2.189110   6.728840  18.078900   0.004387  -0.002965  12.040500   0.007549  -0.005308  19.203400   1.715230   4.913370  19.276900   0.005166  -0.005406  12.838400   0.000523  -0.003228  24.192100   2.012070   4.489760  36.406100  -0.004748  -0.011674  24.246500  -0.003084   0.001191   5.417950   7.856870   2.376300   1.576050   0.055051  11.536500  -2.329930  -0.809689   0.495428   0.000000   0.000000   0.000000   0.394229   5.401380  -5.019310   1.253730   2.965380 -12.122400   1.436860  -2.545640  -3.353950   0.000000   0.000000  -0.000000
  1.133920  89.463900  -2.210700  -2.241160  -5.807780   3.060760   2.031670   3.368350  -1.273530   4.148600   6.688430  -2.672960  -0.169180   1.068590   0.000315  -0.276135   2.166840  13.834800  -9.577540   2.093440   0.110516 -57.570400  15.583700 -53.328400   4.465810  -2.066430 -106.028000  -1.278890  23.332000  -6.708870  35.863800  21.418600 -64.193900 -16.059500   0.005042   0.002962  -3.029780  -0.000073   0.003460  -8.329290   0.348098  -2.376020  -6.820780   0.002059   0.006389  -4.774560   0.001973   0.004303  -8.316770   0.303688  -2.076860  -8.322320   0.004703   0.001552  -5.542660   0.003290   0.001702 -11.321700   0.412232  -2.058060 -11.329100   0.004685   0.004771  -7.545200   0.004717   0.004502 -14.837400   0.537907  -2.028800 -22.270500   0.005624   0.000617 -14.832100  -0.001780   0.009641   7.202340  -0.906927  13.463400  51.399800   1.822490  39.757200 -17.861100 -18.777200 100.785000   2.448790   9.547170  27.644200 -53.716700  43.739800  87.521400  11.320800   0.000608  -0.000971   0.660387   0.001961  -0.000086  20.279900   2.475630   6.668340  16.710700   0.004711  -0.012517  11.697500   0.001296  -0.001711  18.331500   2.246640   6.748610  18.464000   0.004364  -0.002967  12.297000   0.007523  -0.005298  19.568300   1.806110   5.068960  19.648200   0.005182  -0.005427  13.085700   0.000525  -0.003232  24.586300   1.974840   4.305910  36.990900  -0.003407  -0.011716  24.635900  -0.003085   0.001208   5.421980   7.882880   2.377180   1.575900   0.001762  11.537600  -2.327060  -0.787028   0.497858   0.000000   0.000000  -0.000000   0.395731   5.412460  -5.022500   1.255040   2.953410 -12.116900   1.436570  -2.546470  -3.354520   0.000000   0.000000   0.000000
  1.130200  89.464100  -2.203180  -2.241650  -5.801100   3.060230   2.026740   3.365690  -1.273420   4.138650   6.683250  -2.672370  -0.169382   1.062760   0.000204  -0.276424   2.154930  13.807400  -9.583160   2.094780   0.098195 -57.585600  15.642100 -53.366500   4.492370  -2.072890 -106.009000  -1.103450  23.319700  -6.778900  35.922400  21.406400 -64.126800 -16.082300   0.005040   0.003007  -3.041180  -0.000069   0.003522  -8.345500   0.344237  -2.346280  -6.833890   0.002063   0.006369  -4.783740   0.001986   0.004298  -8.282400   0.296036  -2.022980  -8.287770   0.004745   0.001536  -5.519650   0.003292   0.001720 -11.344000   0.403573  -2.004160 -11.351200   0.004728   0.004750  -7.559890   0.004718   0.004480 -15.046800   0.531553  -1.973450 -22.584000   0.005612   0.000590 -15.040900  -0.001829   0.009669   7.203230  -0.909329  13.463600  51.482900   1.804460  39.854900 -17.849700 -18.817700 100.776000   2.372490   9.475000  27.572300 -53.814200  43.778100  87.587800  11.316300   0.000620  -0.000971   0.658115   0.001965  -0.000088  20.608800   2.516970   6.667970  16.982000   0.004691  -0.012512  11.887400   0.001296  -0.001774  18.638600   2.285580   6.750580  18.773700   0.004346  -0.002970  12.503300   0.007501  -0.005285  19.852700   1.863990   5.153740  19.936900   0.005204  -0.005443  13.277900   0.000528  -0.003233  24.913100   1.942070   4.169170  37.475600  -0.002890  -0.011754  24.958700  -0.003085   0.001226   5.426130   7.867970   2.377290   1.575820   0.031739  11.537500  -2.331480  -0.804749   0.498086  -0.000000   0.000000   0.000000   0.397163   5.341180  -5.030590   1.250310   3.023550 -12.109300   1.436400  -2.547090  -3.355150   0.000000   0.000000   0.000000
  1.126780  89.464400  -2.194400  -2.242180  -5.795670   3.060110   2.022170   3.363530  -1.273360   4.129420   6.679040  -2.671870  -0.169597   1.055460   0.000098  -0.277571   2.140020  13.780300  -9.588960   2.097150   0.092511 -57.616100  15.714000 -53.412400   4.519200  -2.078320 -105.983000  -0.918611  23.298300  -6.849180  35.936300  21.385400 -64.072100 -16.105100   0.005040   0.003054  -3.052580  -0.000064   0.003584  -8.361710   0.340375  -2.316530  -6.847010   0.002067   0.006348  -4.792920   0.002000   0.004294  -8.248470   0.280710  -1.929990  -8.253230   0.004786   0.001521  -5.496640   0.003294   0.001739 -11.366800   0.385372  -1.911860 -11.373300   0.004770   0.004730  -7.574580   0.004719   0.004460 -15.299300   0.515531  -1.880920 -22.961600   0.005602   0.000563 -15.292400  -0.001878   0.009696   7.204480  -0.910433  13.465500  51.567600   1.794900  39.949400 -17.848000 -18.875300 100.779000   2.277670   9.404560  27.491900 -54.023500  43.858800  87.733100  11.315600   0.000632  -0.000971   0.657790   0.001969  -0.000090  20.933100   2.562470   6.667630  17.249400   0.004670  -0.012508  12.074600   0.001296  -0.001838  18.939800   2.328110   6.752580  19.077300   0.004327  -0.002975  12.705500   0.007480  -0.005272  20.129000   1.924780   5.241870  20.217600   0.005226  -0.005459  13.464900   0.000532  -0.003235  25.240800   1.905270   4.028700  37.961500  -0.002560  -0.011790  25.282300  -0.003084   0.001245   5.429960   7.848320   2.377270   1.575560   0.072293  11.537400  -2.337720  -0.830404   0.498121  -0.000000   0.000000   0.000000   0.399565   5.269920  -5.036340   1.245730   3.093670 -12.104800   1.436180  -2.548640  -3.355860   0.000000   0.000000  -0.000000
